<svg xmlns="http://www.w3.org/2000/svg" xmlns:xlink="http://www.w3.org/1999/xlink" width="20.523" height="21" viewBox="0 0 20.523 21">
  <defs>
    <clipPath id="clip-path">
      <path id="Path_286" data-name="Path 286" d="M22.284,10.591H12.5v4.057h5.632c-.525,2.577-2.72,4.057-5.632,4.057A6.2,6.2,0,0,1,12.5,6.3,6.07,6.07,0,0,1,16.366,7.68L19.42,4.625A10.493,10.493,0,1,0,12.5,23c5.25,0,10.023-3.818,10.023-10.5A8.711,8.711,0,0,0,22.284,10.591Z" transform="translate(-2 -2)"/>
    </clipPath>
  </defs>
  <g id="Google__G__Logo" transform="translate(-2 -2)">
    <g id="Group_1123" data-name="Group 1123" transform="translate(2 2)" clip-path="url(#clip-path)">
      <path id="Path_285" data-name="Path 285" d="M0,23.409V11l8.114,6.2Z" transform="translate(-0.955 -6.705)" fill="#fbbc05"/>
    </g>
    <g id="Group_1124" data-name="Group 1124" transform="translate(2 2)" clip-path="url(#clip-path)">
      <path id="Path_287" data-name="Path 287" d="M0,5.25l8.114,6.2,3.341-2.911L22.909,6.682V0H0Z" transform="translate(-0.955 -0.955)" fill="#ea4335"/>
    </g>
    <g id="Group_1125" data-name="Group 1125" transform="translate(2 2)" clip-path="url(#clip-path)">
      <path id="Path_289" data-name="Path 289" d="M0,17.659,14.318,6.682l3.77.477L22.909,0V22.909H0Z" transform="translate(-0.955 -0.955)" fill="#34a853"/>
    </g>
    <g id="Group_1126" data-name="Group 1126" transform="translate(2 2)" clip-path="url(#clip-path)">
      <path id="Path_291" data-name="Path 291" d="M29.7,28.659,14.909,17.2,13,15.773,29.7,11Z" transform="translate(-7.75 -6.705)" fill="#4285f4"/>
    </g>
  </g>
</svg>
