<svg xmlns="http://www.w3.org/2000/svg" width="19.893" height="19.893" viewBox="0 0 19.893 19.893">
  <g id="Group_1217" data-name="Group 1217" transform="translate(-397.16 -652.5)">
    <path id="XMLID_17_" d="M13.966,0H5.926A5.933,5.933,0,0,0,0,5.926v8.04a5.933,5.933,0,0,0,5.926,5.926h8.04a5.933,5.933,0,0,0,5.926-5.926V5.926A5.933,5.933,0,0,0,13.966,0Zm3.925,13.966a3.925,3.925,0,0,1-3.925,3.925H5.926A3.925,3.925,0,0,1,2,13.966V5.926A3.925,3.925,0,0,1,5.926,2h8.04a3.925,3.925,0,0,1,3.925,3.925v8.04Z" transform="translate(397.16 652.5)" fill="#d3d8e0"/>
    <path id="XMLID_81_" d="M138.145,133a5.145,5.145,0,1,0,5.145,5.145A5.151,5.151,0,0,0,138.145,133Zm0,8.289a3.144,3.144,0,1,1,3.144-3.144A3.144,3.144,0,0,1,138.145,141.289Z" transform="translate(268.961 524.301)" fill="#d3d8e0"/>
  </g>
</svg>
