<svg xmlns="http://www.w3.org/2000/svg" width="32.902" height="29.558" viewBox="0 0 32.902 29.558">
  <path id="Union_2" data-name="Union 2" d="M-16410.937,2086.019a5.1,5.1,0,0,1-.6-.037h-12.5a.486.486,0,0,1-.268-.078l-2.164-1.189a2.083,2.083,0,0,1-.406.575,2.1,2.1,0,0,1-1.473.611h-6.572a2.091,2.091,0,0,1-1.473-.611,2.091,2.091,0,0,1-.609-1.473V2071.4a2.092,2.092,0,0,1,.609-1.473,2.092,2.092,0,0,1,1.473-.61h6.572a2.1,2.1,0,0,1,1.473.61,2.235,2.235,0,0,1,.213.249c1.428-.867,5.926-4.28,4.922-12.394a.508.508,0,0,1,.385-.557c.516-.157,7.92-2.215,5.77,9.958.764-.078,3.252-.181,3.252-.181s10.275.936,7.025,6.266c.523.8,1.641,3.02-.834,4.472.215.916.5,3.094-1.336,4.1-.062,1.035-.486,4.178-3.455,4.179Zm-9.74-27.911c.861,8.452-4.01,12.062-5.527,12.973V2083.7l2.3,1.262h12.381a.659.659,0,0,1,.078.008c2.85.388,2.961-2.987,2.965-3.4a.508.508,0,0,1,.307-.516c1.789-.767,1.027-3.18.961-3.387a.505.505,0,0,1,.252-.639c2.318-1.126.857-3.147.672-3.4a.5.5,0,0,1-.049-.619c4.2-6.443-8.924-4.851-9.766-4.744a.492.492,0,0,1-.205,0,.507.507,0,0,1-.4-.6c1.668-8.46-1.371-9.631-3.176-9.631A4.387,4.387,0,0,0-16420.678,2058.108Zm-14.99,12.54a1.052,1.052,0,0,0-.314.751v12.417a1.052,1.052,0,0,0,.314.751,1.054,1.054,0,0,0,.75.313h6.572a1.047,1.047,0,0,0,.75-.313,1.079,1.079,0,0,0,.225-.322h-.006v-13.286a1.11,1.11,0,0,0-.219-.311,1.047,1.047,0,0,0-.75-.313h-6.572A1.054,1.054,0,0,0-16435.668,2070.649Z" transform="translate(16437.25 -2056.711)" fill="#d3d8e0" stroke="#d3d8e0" stroke-width="0.5"/>
</svg>
