<svg xmlns="http://www.w3.org/2000/svg" width="20.304" height="18.219" viewBox="0 0 20.304 18.219">
  <g id="noun_message_2043227" transform="translate(0.15 0.15)" opacity="0.696">
    <g id="Group_45" data-name="Group 45">
      <path id="Path_69" data-name="Path 69" d="M96.348,97.5H81.656A2.665,2.665,0,0,0,79,100.162v8.691a2.67,2.67,0,0,0,2.656,2.667H86.55l2.147,3.7a.4.4,0,0,0,.689,0l2.153-3.7h4.809A2.67,2.67,0,0,0,99,108.853v-8.7A2.66,2.66,0,0,0,96.348,97.5Zm1.865,11.341a1.876,1.876,0,0,1-1.865,1.876H91.3a.393.393,0,0,0-.345.192l-1.921,3.311-1.921-3.311a.393.393,0,0,0-.345-.192H81.656a1.876,1.876,0,0,1-1.865-1.876v-8.685a1.871,1.871,0,0,1,1.865-1.87H96.348a1.871,1.871,0,0,1,1.865,1.87Z" transform="translate(-79 -97.5)" fill="#454545" stroke="#454545" stroke-width="0.3"/>
      <rect id="Rectangle_130" data-name="Rectangle 130" width="12.545" height="0.791" transform="translate(3.73 9.431)" fill="#454545" stroke="#454545" stroke-width="0.3"/>
      <rect id="Rectangle_131" data-name="Rectangle 131" width="12.545" height="0.791" transform="translate(3.73 6.549)" fill="#454545" stroke="#454545" stroke-width="0.3"/>
      <rect id="Rectangle_132" data-name="Rectangle 132" width="7.064" height="0.791" transform="translate(3.73 3.667)" fill="#454545" stroke="#454545" stroke-width="0.3"/>
    </g>
  </g>
</svg>
