<svg xmlns="http://www.w3.org/2000/svg" width="22.881" height="22.881" viewBox="0 0 22.881 22.881">
  <g id="noun_Smile_169431" transform="translate(0.3 0.3)">
    <path id="Path_74" data-name="Path 74" d="M32.176,32.5a1.176,1.176,0,1,0,1.176,1.176A1.185,1.185,0,0,0,32.176,32.5Z" transform="translate(-24.563 -25.692)" fill="#d3d8e0" stroke="#d3d8e0" stroke-width="0.6"/>
    <path id="Path_75" data-name="Path 75" d="M60.676,32.5a1.176,1.176,0,1,0,1.176,1.176A1.185,1.185,0,0,0,60.676,32.5Z" transform="translate(-46.008 -25.692)" fill="#d3d8e0" stroke="#d3d8e0" stroke-width="0.6"/>
    <path id="Path_76" data-name="Path 76" d="M16.14,5a11.14,11.14,0,1,0,11.14,11.14A11.15,11.15,0,0,0,16.14,5Zm0,1.362A9.779,9.779,0,1,1,6.362,16.14,9.762,9.762,0,0,1,16.14,6.362Z" transform="translate(-5 -5)" fill="#d3d8e0" stroke="#d3d8e0" stroke-width="0.6"/>
    <path id="Path_77" data-name="Path 77" d="M38.68,61.011a.675.675,0,0,0-.549-1.106.757.757,0,0,0-.572.364,5.215,5.215,0,0,1-8.417,0,.757.757,0,0,0-.572-.364.675.675,0,0,0-.549,1.106,6.535,6.535,0,0,0,10.661,0Z" transform="translate(-22.209 -46.312)" fill="#d3d8e0" stroke="#d3d8e0" stroke-width="0.6"/>
  </g>
</svg>
