<svg xmlns="http://www.w3.org/2000/svg" width="31.96" height="36.28" viewBox="0 0 31.96 36.28">
  <g id="noun_filter_1181309" transform="translate(84 29)">
    <g id="Group_976" data-name="Group 976" transform="translate(-83.5 -28.5)">
      <g id="Group_975" data-name="Group 975" transform="translate(0)">
        <path id="Path_97" data-name="Path 97" d="M18.72,2.285h0a4.681,4.681,0,0,1,0,9.109V29.88a1.08,1.08,0,1,1-2.16,0V11.395a4.681,4.681,0,0,1,0-9.109V1.08a1.08,1.08,0,0,1,2.16,0ZM15.12,6.84a2.52,2.52,0,1,0,2.52-2.52A2.523,2.523,0,0,0,15.12,6.84ZM5.76,19.565h0a4.681,4.681,0,0,1,0,9.109V29.88a1.08,1.08,0,0,1-2.16,0V28.675a4.681,4.681,0,0,1,0-9.109V1.08a1.08,1.08,0,0,1,2.16,0ZM2.16,24.12A2.52,2.52,0,1,0,4.68,21.6,2.523,2.523,0,0,0,2.16,24.12ZM31.68,13.085h0a4.681,4.681,0,0,1,0,9.109V29.88a1.08,1.08,0,1,1-2.16,0V22.195a4.681,4.681,0,0,1,0-9.109V1.08a1.08,1.08,0,1,1,2.16,0Zm-3.6,4.555a2.52,2.52,0,1,0,2.52-2.52A2.523,2.523,0,0,0,28.08,17.64Z" transform="translate(30.96) rotate(90)" fill="#d3d8e0" stroke="#d3d8e0" stroke-width="1"/>
      </g>
    </g>
  </g>
</svg>
