<svg xmlns="http://www.w3.org/2000/svg" width="22.898" height="22.668" viewBox="0 0 22.898 22.668">
  <g id="noun_friends_1297819" transform="translate(0.45 -0.063)">
    <g id="Group_47" data-name="Group 47" transform="translate(0 0)">
      <g id="Group_46" data-name="Group 46">
        <path id="Path_70" data-name="Path 70" d="M55,52.209a.652.652,0,0,1-1.294,0c0-4.234-3.548-6.284-9.705-6.284s-9.705,2.051-9.705,6.284a.652.652,0,0,1-1.294,0c0-4.991,4.214-7.427,11-7.427S55,47.218,55,52.209ZM44,42.6a5.564,5.564,0,0,1-5.823-5.82A5.566,5.566,0,0,1,44,31.013a5.566,5.566,0,0,1,5.823,5.771A5.564,5.564,0,0,1,44,42.6Zm0-1.143a4.389,4.389,0,0,0,4.529-4.678,4.53,4.53,0,1,0-9.058,0A4.389,4.389,0,0,0,44,41.462Z" transform="translate(-33 -30.5)" fill="#d3d8e0" stroke="#d3d8e0" stroke-width="0.9"/>
      </g>
    </g>
  </g>
</svg>
