<svg xmlns="http://www.w3.org/2000/svg" width="20.053" height="16.289" viewBox="0 0 20.053 16.289">
  <g id="twitter-logo-silhouette" transform="translate(-0.001 -57.441)">
    <g id="Group_1215" data-name="Group 1215" transform="translate(0.001 57.441)">
      <path id="Path_300" data-name="Path 300" d="M20.054,59.368a8.215,8.215,0,0,1-2.362.648A4.131,4.131,0,0,0,19.5,57.742a8.293,8.293,0,0,1-2.614,1,4.117,4.117,0,0,0-7.01,3.75,11.679,11.679,0,0,1-8.478-4.3,4.118,4.118,0,0,0,1.273,5.491,4.114,4.114,0,0,1-1.863-.516v.051a4.118,4.118,0,0,0,3.3,4.034,4.167,4.167,0,0,1-1.084.144,3.948,3.948,0,0,1-.774-.076,4.116,4.116,0,0,0,3.842,2.857A8.253,8.253,0,0,1,.982,71.935,8.742,8.742,0,0,1,0,71.879,11.628,11.628,0,0,0,6.306,73.73a11.623,11.623,0,0,0,11.7-11.7L18,61.493A8.215,8.215,0,0,0,20.054,59.368Z" transform="translate(-0.001 -57.441)" fill="#d3d8e0"/>
    </g>
  </g>
</svg>
