<svg xmlns="http://www.w3.org/2000/svg" width="70.493" height="71.235" viewBox="0 0 70.493 71.235">
  <path id="Path_1" data-name="Path 1" d="M-180.066,571.21v69.826h17.606s0-16.806,16.606-16.806,19.807,16.406,16.406,16.806,18.607,0,18.607,0,3.6-18.407-20.608-32.412c-5.132-2.969-9.192-2.317-13.2-2.4-8.033-.174-13.916,4.256-16.806,3.4-1.151-.311-1.131-.773-1-5.6.027-1-.058-4.423,0-6.2.3-9.105-3.769-13.549-7-17.807C-174.492,573.383-180.066,571.21-180.066,571.21Z" transform="translate(180.566 -570.478)" fill="#333" stroke="#333" stroke-width="1"/>
</svg>
